<?xml version="1.0" encoding="UTF-8" standalone="no"?>
<!DOCTYPE svg PUBLIC "-//W3C//DTD SVG 1.1//EN" "http://www.w3.org/Graphics/SVG/1.1/DTD/svg11.dtd">
<svg width="100%" height="100%" viewBox="0 0 788 68" version="1.1" xmlns="http://www.w3.org/2000/svg"  xml:space="preserve"  style="fill-rule:evenodd;clip-rule:evenodd;stroke-linejoin:round;stroke-miterlimit:1.41421;">
    <g transform="matrix(0.943734,0,0,0.943734,-232.427,-19.0472)">
        <path d="M245.983,56.21C245.983,51.09 246.879,46.466 248.671,42.338C250.463,38.21 252.895,34.674 255.967,31.73C259.039,28.786 262.623,26.53 266.719,24.962C270.815,23.394 275.167,22.61 279.775,22.61C283.423,22.61 286.671,22.962 289.519,23.666C292.367,24.37 294.815,25.17 296.863,26.066C299.231,27.09 301.279,28.21 303.007,29.426L292.927,47.186C291.903,46.418 290.783,45.682 289.567,44.978C288.479,44.466 287.183,43.97 285.679,43.49C284.175,43.01 282.463,42.77 280.543,42.77C278.559,42.77 276.735,43.122 275.071,43.826C273.407,44.53 271.951,45.49 270.703,46.706C269.455,47.922 268.479,49.346 267.775,50.978C267.071,52.61 266.719,54.354 266.719,56.21C266.719,58.066 267.087,59.81 267.823,61.442C268.559,63.074 269.567,64.498 270.847,65.714C272.127,66.93 273.631,67.89 275.359,68.594C277.087,69.298 278.975,69.65 281.023,69.65C283.071,69.65 284.895,69.394 286.495,68.882C288.095,68.37 289.439,67.794 290.527,67.154C291.807,66.45 292.927,65.618 293.887,64.658L303.967,82.418C302.239,83.826 300.191,85.074 297.823,86.162C295.775,87.058 293.311,87.89 290.431,88.658C287.551,89.426 284.255,89.81 280.543,89.81C275.551,89.81 270.943,88.994 266.719,87.362C262.495,85.73 258.847,83.442 255.775,80.498C252.703,77.554 250.303,74.018 248.575,69.89C246.847,65.762 245.983,61.202 245.983,56.21Z" style="fill:rgb(34,34,34);fill-rule:nonzero;"/>
        <path d="M330.655,24.146L346.015,24.146L370.303,88.178L350.143,88.178L348.031,82.418L328.639,82.418L326.527,88.178L306.367,88.178L330.655,24.146ZM342.655,68.306L338.335,57.074L334.015,68.306L342.655,68.306Z" style="fill:rgb(34,34,34);fill-rule:nonzero;"/>
        <path d="M374.623,88.178L374.623,24.146L392.383,24.146C398.399,24.146 403.759,24.818 408.463,26.162C413.167,27.506 417.135,29.522 420.367,32.21C423.599,34.898 426.063,38.242 427.759,42.242C429.455,46.242 430.303,50.866 430.303,56.114C430.303,61.362 429.455,65.986 427.759,69.986C426.063,73.986 423.599,77.33 420.367,80.018C417.135,82.706 413.167,84.738 408.463,86.114C403.759,87.49 398.399,88.178 392.383,88.178L374.623,88.178ZM395.071,69.938C399.871,69.938 403.583,68.802 406.207,66.53C408.831,64.258 410.143,60.786 410.143,56.114C410.143,51.442 408.831,47.986 406.207,45.746C403.583,43.506 399.871,42.386 395.071,42.386L395.071,69.938Z" style="fill:rgb(34,34,34);fill-rule:nonzero;"/>
        <path d="M438.463,24.146L476.191,24.146L476.191,40.946L458.911,40.946L458.911,48.05L475.903,48.05L475.903,63.986L458.911,63.986L458.911,71.378L476.863,71.378L476.863,88.178L438.463,88.178L438.463,24.146Z" style="fill:rgb(34,34,34);fill-rule:nonzero;"/>
        <path d="M504.223,72.818L511.231,72.818C513.279,72.818 514.655,72.434 515.359,71.666C516.063,70.898 516.415,69.81 516.415,68.402L516.415,24.146L537.535,24.146L537.535,71.954C537.535,77.906 536.175,82.098 533.455,84.53C530.735,86.962 526.399,88.178 520.447,88.178L504.223,88.178L504.223,72.818Z" style="fill:rgb(34,34,34);fill-rule:nonzero;"/>
        <path d="M567.199,68.306C568.607,68.754 570.079,69.106 571.615,69.362C572.895,69.682 574.351,69.938 575.983,70.13C577.615,70.322 579.263,70.418 580.927,70.418C583.871,70.418 585.343,69.33 585.343,67.154C585.343,66.322 584.895,65.474 583.999,64.61C583.103,63.746 581.967,62.786 580.591,61.73C579.215,60.674 577.743,59.506 576.175,58.226C574.607,56.946 573.135,55.474 571.759,53.81C570.383,52.146 569.247,50.274 568.351,48.194C567.455,46.114 567.007,43.73 567.007,41.042C567.007,38.034 567.551,35.378 568.639,33.074C569.727,30.77 571.231,28.85 573.151,27.314C575.071,25.778 577.327,24.61 579.919,23.81C582.511,23.01 585.279,22.61 588.223,22.61C589.759,22.61 591.295,22.69 592.831,22.85C594.367,23.01 595.743,23.154 596.959,23.282C598.367,23.474 599.743,23.666 601.087,23.858L601.087,41.81C600.575,41.746 599.999,41.682 599.359,41.618C598.847,41.554 598.271,41.49 597.631,41.426C596.991,41.362 596.319,41.33 595.615,41.33C595.231,41.33 594.751,41.346 594.175,41.378C593.599,41.41 593.055,41.49 592.543,41.618C592.031,41.746 591.583,41.97 591.199,42.29C590.815,42.61 590.623,43.058 590.623,43.634C590.623,44.146 591.055,44.786 591.919,45.554C592.783,46.322 593.839,47.218 595.087,48.242C596.335,49.266 597.711,50.45 599.215,51.794C600.719,53.138 602.095,54.674 603.343,56.402C604.591,58.13 605.647,60.082 606.511,62.258C607.375,64.434 607.807,66.866 607.807,69.554C607.807,72.37 607.359,75.01 606.463,77.474C605.567,79.938 604.175,82.082 602.287,83.906C600.399,85.73 597.983,87.17 595.039,88.226C592.095,89.282 588.607,89.81 584.575,89.81C582.143,89.81 579.887,89.698 577.807,89.474C575.727,89.25 573.887,88.978 572.287,88.658C570.431,88.338 568.735,87.954 567.199,87.506L567.199,68.306Z" style="fill:rgb(34,34,34);fill-rule:nonzero;"/>
        <path d="M612.127,56.21C612.127,51.09 613.023,46.466 614.815,42.338C616.607,38.21 619.039,34.674 622.111,31.73C625.183,28.786 628.767,26.53 632.863,24.962C636.959,23.394 641.311,22.61 645.919,22.61C649.567,22.61 652.815,22.962 655.663,23.666C658.511,24.37 660.959,25.17 663.007,26.066C665.375,27.09 667.423,28.21 669.151,29.426L659.071,47.186C658.047,46.418 656.927,45.682 655.711,44.978C654.623,44.466 653.327,43.97 651.823,43.49C650.319,43.01 648.607,42.77 646.687,42.77C644.703,42.77 642.879,43.122 641.215,43.826C639.551,44.53 638.095,45.49 636.847,46.706C635.599,47.922 634.623,49.346 633.919,50.978C633.215,52.61 632.863,54.354 632.863,56.21C632.863,58.066 633.231,59.81 633.967,61.442C634.703,63.074 635.711,64.498 636.991,65.714C638.271,66.93 639.775,67.89 641.503,68.594C643.231,69.298 645.119,69.65 647.167,69.65C649.215,69.65 651.039,69.394 652.639,68.882C654.239,68.37 655.583,67.794 656.671,67.154C657.951,66.45 659.071,65.618 660.031,64.658L670.111,82.418C668.383,83.826 666.335,85.074 663.967,86.162C661.919,87.058 659.455,87.89 656.575,88.658C653.695,89.426 650.399,89.81 646.687,89.81C641.695,89.81 637.087,88.994 632.863,87.362C628.639,85.73 624.991,83.442 621.919,80.498C618.847,77.554 616.447,74.018 614.719,69.89C612.991,65.762 612.127,61.202 612.127,56.21Z" style="fill:rgb(34,34,34);fill-rule:nonzero;"/>
        <path d="M675.391,24.146L697.471,24.146C701.567,24.146 705.359,24.69 708.847,25.778C712.335,26.866 715.359,28.466 717.919,30.578C720.479,32.69 722.479,35.298 723.919,38.402C725.359,41.506 726.079,45.074 726.079,49.106C726.079,52.306 725.631,55.026 724.735,57.266C723.839,59.506 722.847,61.362 721.759,62.834C720.479,64.498 719.039,65.906 717.439,67.058L729.439,88.178L705.439,88.178L695.839,71.954L695.839,88.178L675.391,88.178L675.391,24.146ZM695.839,55.634L696.895,55.634C699.327,55.634 701.391,55.09 703.087,54.002C704.783,52.914 705.631,51.09 705.631,48.53C705.631,45.97 704.783,44.146 703.087,43.058C701.391,41.97 699.327,41.426 696.895,41.426L695.839,41.426L695.839,55.634Z" style="fill:rgb(34,34,34);fill-rule:nonzero;"/>
        <path d="M732.319,56.21C732.319,51.602 733.199,47.25 734.959,43.154C736.719,39.058 739.119,35.49 742.159,32.45C745.199,29.41 748.767,27.01 752.863,25.25C756.959,23.49 761.311,22.61 765.919,22.61C770.527,22.61 774.879,23.49 778.975,25.25C783.071,27.01 786.639,29.41 789.679,32.45C792.719,35.49 795.119,39.058 796.879,43.154C798.639,47.25 799.519,51.602 799.519,56.21C799.519,60.818 798.639,65.17 796.879,69.266C795.119,73.362 792.719,76.93 789.679,79.97C786.639,83.01 783.071,85.41 778.975,87.17C774.879,88.93 770.527,89.81 765.919,89.81C761.311,89.81 756.959,88.93 752.863,87.17C748.767,85.41 745.199,83.01 742.159,79.97C739.119,76.93 736.719,73.362 734.959,69.266C733.199,65.17 732.319,60.818 732.319,56.21ZM752.479,56.21C752.479,58.066 752.831,59.81 753.535,61.442C754.239,63.074 755.199,64.498 756.415,65.714C757.631,66.93 759.055,67.89 760.687,68.594C762.319,69.298 764.063,69.65 765.919,69.65C767.775,69.65 769.519,69.298 771.151,68.594C772.783,67.89 774.207,66.93 775.423,65.714C776.639,64.498 777.599,63.074 778.303,61.442C779.007,59.81 779.359,58.066 779.359,56.21C779.359,54.354 779.007,52.61 778.303,50.978C777.599,49.346 776.639,47.922 775.423,46.706C774.207,45.49 772.783,44.53 771.151,43.826C769.519,43.122 767.775,42.77 765.919,42.77C764.063,42.77 762.319,43.122 760.687,43.826C759.055,44.53 757.631,45.49 756.415,46.706C755.199,47.922 754.239,49.346 753.535,50.978C752.831,52.61 752.479,54.354 752.479,56.21Z" style="fill:rgb(34,34,34);fill-rule:nonzero;"/>
        <path d="M848.479,45.938C847.327,44.914 845.887,44.13 844.159,43.586C842.431,43.042 840.735,42.77 839.071,42.77C837.215,42.77 835.519,43.106 833.983,43.778C832.447,44.45 831.119,45.378 829.999,46.562C828.879,47.746 827.999,49.17 827.359,50.834C826.719,52.498 826.399,54.29 826.399,56.21C826.399,58.13 826.751,59.922 827.455,61.586C828.159,63.25 829.119,64.674 830.335,65.858C831.551,67.042 832.975,67.97 834.607,68.642C836.239,69.314 837.983,69.65 839.839,69.65C842.015,69.65 843.999,69.186 845.791,68.258C847.583,67.33 849.119,66.066 850.399,64.466L844.639,64.466L844.639,51.026L869.311,51.026L869.311,72.338C867.839,74.962 866.079,77.346 864.031,79.49C861.983,81.634 859.695,83.474 857.167,85.01C854.639,86.546 851.903,87.73 848.959,88.562C846.015,89.394 842.975,89.81 839.839,89.81C835.231,89.81 830.879,88.946 826.783,87.218C822.687,85.49 819.119,83.122 816.079,80.114C813.039,77.106 810.639,73.554 808.879,69.458C807.119,65.362 806.239,60.946 806.239,56.21C806.239,51.602 807.071,47.25 808.735,43.154C810.399,39.058 812.687,35.49 815.599,32.45C818.511,29.41 821.967,27.01 825.967,25.25C829.967,23.49 834.271,22.61 838.879,22.61C842.463,22.61 845.567,22.962 848.191,23.666C850.815,24.37 853.023,25.17 854.815,26.066C856.927,27.09 858.687,28.21 860.095,29.426L848.479,45.938Z" style="fill:rgb(34,34,34);fill-rule:nonzero;"/>
        <path d="M918.271,45.938C917.119,44.914 915.679,44.13 913.951,43.586C912.223,43.042 910.527,42.77 908.863,42.77C907.007,42.77 905.311,43.106 903.775,43.778C902.239,44.45 900.911,45.378 899.791,46.562C898.671,47.746 897.791,49.17 897.151,50.834C896.511,52.498 896.191,54.29 896.191,56.21C896.191,58.13 896.543,59.922 897.247,61.586C897.951,63.25 898.911,64.674 900.127,65.858C901.343,67.042 902.767,67.97 904.399,68.642C906.031,69.314 907.775,69.65 909.631,69.65C911.807,69.65 913.791,69.186 915.583,68.258C917.375,67.33 918.911,66.066 920.191,64.466L914.431,64.466L914.431,51.026L939.103,51.026L939.103,72.338C937.631,74.962 935.871,77.346 933.823,79.49C931.775,81.634 929.487,83.474 926.959,85.01C924.431,86.546 921.695,87.73 918.751,88.562C915.807,89.394 912.767,89.81 909.631,89.81C905.023,89.81 900.671,88.946 896.575,87.218C892.479,85.49 888.911,83.122 885.871,80.114C882.831,77.106 880.431,73.554 878.671,69.458C876.911,65.362 876.031,60.946 876.031,56.21C876.031,51.602 876.863,47.25 878.527,43.154C880.191,39.058 882.479,35.49 885.391,32.45C888.303,29.41 891.759,27.01 895.759,25.25C899.759,23.49 904.063,22.61 908.671,22.61C912.255,22.61 915.359,22.962 917.983,23.666C920.607,24.37 922.815,25.17 924.607,26.066C926.719,27.09 928.479,28.21 929.887,29.426L918.271,45.938Z" style="fill:rgb(34,34,34);fill-rule:nonzero;"/>
        <rect x="947.263" y="24.146" width="21.696" height="64.032" style="fill:rgb(34,34,34);fill-rule:nonzero;"/>
        <path d="M978.559,24.146L995.359,24.146L1013.02,48.818L1013.02,24.146L1033.09,24.146L1033.09,88.178L1016.19,88.178L998.623,63.602L998.623,88.178L978.559,88.178L978.559,24.146Z" style="fill:rgb(34,34,34);fill-rule:nonzero;"/>
        <path d="M1040.96,68.306C1042.37,68.754 1043.84,69.106 1045.38,69.362C1046.65,69.682 1048.11,69.938 1049.74,70.13C1051.38,70.322 1053.02,70.418 1054.69,70.418C1057.63,70.418 1059.1,69.33 1059.1,67.154C1059.1,66.322 1058.65,65.474 1057.76,64.61C1056.86,63.746 1055.73,62.786 1054.35,61.73C1052.97,60.674 1051.5,59.506 1049.93,58.226C1048.37,56.946 1046.89,55.474 1045.52,53.81C1044.14,52.146 1043.01,50.274 1042.11,48.194C1041.21,46.114 1040.77,43.73 1040.77,41.042C1040.77,38.034 1041.31,35.378 1042.4,33.074C1043.49,30.77 1044.99,28.85 1046.91,27.314C1048.83,25.778 1051.09,24.61 1053.68,23.81C1056.27,23.01 1059.04,22.61 1061.98,22.61C1063.52,22.61 1065.06,22.69 1066.59,22.85C1068.13,23.01 1069.5,23.154 1070.72,23.282C1072.13,23.474 1073.5,23.666 1074.85,23.858L1074.85,41.81C1074.34,41.746 1073.76,41.682 1073.12,41.618C1072.61,41.554 1072.03,41.49 1071.39,41.426C1070.75,41.362 1070.08,41.33 1069.38,41.33C1068.99,41.33 1068.51,41.346 1067.93,41.378C1067.36,41.41 1066.82,41.49 1066.3,41.618C1065.79,41.746 1065.34,41.97 1064.96,42.29C1064.58,42.61 1064.38,43.058 1064.38,43.634C1064.38,44.146 1064.82,44.786 1065.68,45.554C1066.54,46.322 1067.6,47.218 1068.85,48.242C1070.1,49.266 1071.47,50.45 1072.97,51.794C1074.48,53.138 1075.86,54.674 1077.1,56.402C1078.35,58.13 1079.41,60.082 1080.27,62.258C1081.13,64.434 1081.57,66.866 1081.57,69.554C1081.57,72.37 1081.12,75.01 1080.22,77.474C1079.33,79.938 1077.93,82.082 1076.05,83.906C1074.16,85.73 1071.74,87.17 1068.8,88.226C1065.86,89.282 1062.37,89.81 1058.34,89.81C1055.9,89.81 1053.65,89.698 1051.57,89.474C1049.49,89.25 1047.65,88.978 1046.05,88.658C1044.19,88.338 1042.5,87.954 1040.96,87.506L1040.96,68.306Z" style="fill:rgb(34,34,34);fill-rule:nonzero;"/>
    </g>
</svg>
